<?xml version="1.0" encoding="utf-8"?>
<!-- Generator: Adobe Illustrator 19.2.1, SVG Export Plug-In . SVG Version: 6.00 Build 0)  -->
<svg version="1.1" id="Layer_1" xmlns="http://www.w3.org/2000/svg" xmlns:xlink="http://www.w3.org/1999/xlink" x="0px" y="0px"
	 viewBox="0 0 339 339" style="enable-background:new 0 0 339 339;" xml:space="preserve">
<style type="text/css">
	.st0{fill:#EEE045;}
	.st1{fill:#FFEAA7;}
	.st2{fill:#FDCB6E;}
</style>
<path class="st0" d="M234.9,50.2C234.9,50.2,235,50.2,234.9,50.2C235,50.2,234.9,50.2,234.9,50.2z"/>
<path class="st0" d="M225.9,59.1c0.3-0.3,0.7-0.6,1-0.9C226.6,58.5,226.2,58.8,225.9,59.1z"/>
<path class="st0" d="M221.7,62.8c0.1-0.1,0.2-0.2,0.3-0.3C221.9,62.6,221.8,62.7,221.7,62.8z"/>
<path class="st0" d="M61.7,222.9c0.1-0.1,0.2-0.2,0.3-0.3C61.8,222.7,61.7,222.8,61.7,222.9z"/>
<path class="st1" d="M238.4,46.3C238.4,46.3,238.4,46.3,238.4,46.3l16.3,16.3c68.2,68.2,80.4,166.9,27.1,220.2
	c-53.2,53.2-152,41-220.2-27.1l-16.3-16.3c0,0,0,0,0,0C28.8,253.7,12.8,261,7.6,255.7l27,27c68.2,68.2,179.1,68.2,247.3,0
	c68.2-68.2,68.2-179.1,0-247.3l-27-27C260.1,13.7,252.9,29.7,238.4,46.3z"/>
<path class="st0" d="M49.3,235.8C49.3,235.8,49.3,235.8,49.3,235.8C49.3,235.8,49.3,235.8,49.3,235.8z"/>
<path class="st1" d="M248.4,249.3c39.6-39.6,36.6-107-6.6-150.2l-29.3-29.3c0,0,0,0,0,0c-11.2,7.7-20.9,11.3-25.7,8.9l25.9,25.9
	c30.1,30.1,30.1,79,0,109.1c-30.1,30.1-79,30.1-109.1,0l-25.9-25.9c2.4,4.8-1.2,14.5-8.9,25.7l29.3,29.3
	C141.5,286,208.8,288.9,248.4,249.3z"/>
<g>
	<path class="st1" d="M57.3,227.8c0.3-0.3,0.6-0.7,0.9-1C57.9,227.1,57.6,227.4,57.3,227.8z"/>
	<path class="st1" d="M45.4,239.3c1.3-1.1,2.6-2.3,3.9-3.5C48,237,46.7,238.2,45.4,239.3z"/>
	<path class="st1" d="M58.2,226.8c1.2-1.3,2.3-2.6,3.4-3.9C60.6,224.2,59.4,225.5,58.2,226.8z"/>
	<path class="st1" d="M68.9,213.4c-2.1,3-4.4,6-7,9.1C64.5,219.4,66.9,216.4,68.9,213.4z"/>
	<path class="st1" d="M222,62.5c1.3-1.1,2.6-2.2,3.9-3.4C224.6,60.3,223.3,61.4,222,62.5z"/>
	<path class="st1" d="M212.6,69.8c3-2.1,6-4.4,9.1-7C218.6,65.4,215.5,67.7,212.6,69.8z"/>
	<path class="st1" d="M234.9,50.2c-1.2,1.3-2.5,2.6-3.7,3.9c-1.4,1.4-2.8,2.8-4.3,4.1c1.4-1.3,2.9-2.7,4.3-4.1
		C232.5,52.8,233.7,51.5,234.9,50.2z"/>
	<path class="st1" d="M57.3,227.8c-1.3,1.4-2.7,2.9-4.1,4.3c-1.3,1.3-2.6,2.5-3.9,3.7c1.3-1.2,2.6-2.5,3.9-3.7
		C54.6,230.6,56,229.2,57.3,227.8z"/>
	<path class="st1" d="M235,50.1c1.2-1.3,2.4-2.6,3.5-3.9C237.3,47.6,236.2,48.9,235,50.1z"/>
	<path class="st1" d="M61.7,255.6c68.2,68.2,166.9,80.4,220.2,27.1c53.2-53.2,41-152-27.1-220.2l-16.3-16.3c0,0,0,0,0,0
		c-1.1,1.3-2.3,2.6-3.5,3.9c0,0,0,0,0,0c-1.2,1.3-2.5,2.6-3.7,3.9c-1.4,1.4-2.9,2.8-4.3,4.1c-0.3,0.3-0.7,0.6-1,0.9
		c-1.3,1.2-2.6,2.3-3.9,3.4c-0.1,0.1-0.2,0.2-0.3,0.3c-3.1,2.6-6.2,4.9-9.1,7c0,0,0,0,0,0l29.3,29.3c43.2,43.2,46.2,110.6,6.6,150.2
		s-107,36.6-150.2-6.6l-29.3-29.3c-2.1,3-4.4,6-7,9.1c-0.1,0.1-0.2,0.2-0.3,0.3c-1.1,1.3-2.3,2.6-3.4,3.9c-0.3,0.3-0.6,0.7-0.9,1
		c-1.3,1.4-2.7,2.9-4.1,4.3c-1.3,1.3-2.6,2.5-3.9,3.7c0,0,0,0,0,0c-1.3,1.2-2.6,2.4-3.9,3.5c0,0,0,0,0,0L61.7,255.6z"/>
</g>
<path class="st1" d="M254.9,8.4c-6.1-6.1-26.5,4.5-45.6,23.7s-29.7,39.6-23.7,45.6c6.1,6.1,26.5-4.5,45.6-23.7
	C250.3,34.9,260.9,14.5,254.9,8.4z"/>
<path class="st1" d="M76.9,186.4c-6.1-6.1-26.5,4.5-45.6,23.7c-19.1,19.1-29.7,39.6-23.7,45.6c6.1,6.1,26.5-4.5,45.6-23.7
	C72.3,212.9,82.9,192.5,76.9,186.4z"/>
<path class="st2" d="M190.5,85.3c-3.9,0-7-1.2-9.2-3.3c-7.6-7.6-3.2-27.2,23.7-54.1C231.8,1,251.5-3.4,259.1,4.2
	c7.6,7.6,3.2,27.2-23.7,54.1C216.1,77.6,200.6,85.3,190.5,85.3z M189.8,73.4c3.4,0.8,18.2-4.7,37.1-23.6
	c18.9-18.9,24.4-33.8,23.6-37.1c-3.4-0.8-18.2,4.7-37.1,23.6C194.5,55.2,189,70.1,189.8,73.4z"/>
<path class="st2" d="M12.5,263.3c-3.9,0-7-1.2-9.2-3.3c-7.6-7.6-3.2-27.2,23.7-54.1c26.9-26.9,46.5-31.2,54.1-23.7
	c7.6,7.6,3.2,27.2-23.7,54.1C38.1,255.6,22.6,263.3,12.5,263.3z M11.8,251.4c3.4,0.8,18.2-4.7,37.1-23.6
	c18.9-18.9,24.4-33.8,23.6-37.1c-3.4-0.8-18.2,4.7-37.1,23.6S11,248.1,11.8,251.4z"/>
<path class="st2" d="M158.2,339.9c-46.3,0-92.6-17.6-127.9-52.9l-27-27c-1.2-1.2-1.8-2.7-1.8-4.2c0-1.5,0.6-3.1,1.8-4.2
	c2.3-2.3,6-2.3,8.3-0.1c2.9,1.1,18-4.3,37.3-23.5c19.5-19.5,24.7-34.6,23.5-37.4c-1.3-2.6-0.6-5.8,1.8-7.6c2.4-1.7,5.7-1.5,7.8,0.6
	l25.9,25.9c27.7,27.7,72.9,27.7,100.6,0c27.7-27.7,27.7-72.9,0-100.6l-25.9-25.9c-2.1-2.1-2.3-5.4-0.6-7.7c1.7-2.4,4.9-3.1,7.6-1.8
	c2.8,1.2,17.9-4.1,37.4-23.5c19.3-19.3,24.6-34.3,23.5-37.3c-1.1-1.2-1.6-2.6-1.6-4.1c0-1.5,0.6-3.1,1.8-4.2c2.3-2.3,6.1-2.3,8.5,0
	l27,27c70.5,70.5,70.5,185.3,0,255.8C250.9,322.2,204.5,339.9,158.2,339.9z M21.8,261.5l17,17c65.9,65.8,173,65.9,238.8,0
	c65.8-65.8,65.8-173,0-238.8l-17-17c-3.2,9.4-11.1,21.5-25.2,35.6c-13.8,13.8-26,21.7-35.4,25l17,17c32.4,32.4,32.4,85.1,0,117.5
	c-32.4,32.4-85.1,32.4-117.5,0l-17-17c-3.4,9.5-11.3,21.7-25,35.4C43.3,250.4,31.2,258.3,21.8,261.5z M11.8,251.5
	C11.8,251.5,11.8,251.5,11.8,251.5z M250.6,12.6C250.6,12.6,250.6,12.7,250.6,12.6z"/>
</svg>