<?xml version="1.0" encoding="utf-8"?>
<!-- Generator: Adobe Illustrator 19.2.1, SVG Export Plug-In . SVG Version: 6.00 Build 0)  -->
<svg version="1.1" id="Layer_1" xmlns="http://www.w3.org/2000/svg" xmlns:xlink="http://www.w3.org/1999/xlink" x="0px" y="0px"
	 viewBox="0 0 439 439" style="enable-background:new 0 0 439 439;" xml:space="preserve">
<style type="text/css">
	.st0{fill:#FFECA7;}
	.st1{fill:#EEE045;}
	.st2{fill:#FDCB6E;}
</style>
<path class="st0" d="M71.9,315.2l6-7.1l1-1.2c2.2-2.7,4.5-5.4,6.8-8l0.1-0.1c4.1-4.7,8.5-9.4,13-13.9c6.3-6.4,13-11.8,19.2-15.6
	c-0.1,0-0.1,0.1-0.1,0.1l6.3-7.5l1-1.2c2.2-2.7,4.5-5.4,6.8-8l0.1-0.1c4.1-4.7,8.5-9.4,13-13.9c6.3-6.4,13-11.8,19.2-15.6
	c-0.1,0-0.1,0.1-0.2,0.1l6.3-7.5l1-1.2c2.2-2.7,4.5-5.4,6.8-8l0-0.1h0c4.1-4.7,8.5-9.4,13-13.9c6.3-6.4,13-11.8,19.2-15.6
	c-0.1,0-0.1,0.1-0.1,0.1l6.3-7.5l1-1.2c2.2-2.7,4.5-5.4,6.8-8l0-0.1c4.1-4.7,8.5-9.4,13-13.9c6.3-6.4,13-11.8,19.2-15.6
	c-0.1,0-0.1,0.1-0.2,0.1l6.3-7.5l1-1.2c2.2-2.7,4.5-5.4,6.8-8l0-0.1c4.1-4.7,8.5-9.4,13-13.9c6.8-6.8,13.9-12.5,20.4-16.4l4.9-5.9h0
	c11.7-14.6,25.1-29.5,41.6-42.6L329.5,6c-23.2,9.4-36.5,27.2-46.2,46.2l0,0l-3.8,7c-9,1.4-17.6,5.6-24.4,12.5
	c-4.5,4.5-8.5,9.5-12.1,14.7l0,0.1c-2,3-3.9,6.1-5.6,9.2l-0.8,1.4l-5.2,8.6c0.1,0,0.1,0,0.2,0c-8.4,1.6-16.4,5.7-22.7,12.1
	c-4.5,4.5-8.5,9.5-12.1,14.7l0,0l0,0.1c-2,3-3.9,6.1-5.6,9.2l-0.8,1.4l-5.2,8.6c0.1,0,0.1,0,0.2,0c-8.4,1.6-16.4,5.7-22.7,12.1
	c-4.5,4.5-8.5,9.5-12.1,14.7l0,0l0,0.1c-2,3-3.9,6.1-5.6,9.2l-0.8,1.4l-5.2,8.6c0.1,0,0.1,0,0.2,0c-8.4,1.6-16.4,5.7-22.7,12.1
	c-4.5,4.5-8.5,9.5-12.1,14.7l0,0.1c-2,3-3.9,6-5.6,9.2l-0.8,1.4l-5.2,8.6c0.1,0,0.1,0,0.2,0c-8.4,1.6-16.4,5.7-22.7,12.1
	c-4.5,4.5-8.5,9.5-12.1,14.7l0,0.1c-2,3-3.9,6.1-5.6,9.2l-0.8,1.4l-4.9,8.1c-8.1,1.6-15.7,5.6-21.8,11.7c-4.6,4.6-8.8,9.7-12.5,15.2
	v0l0,0.1c-2,3-3.9,6.1-5.6,9.2L6,327.7l47.3,2.7c0,0,0.1-0.1,0.1-0.1C59.5,324.1,65.9,319,71.9,315.2z"/>
<path class="st1" d="M76.5,333.8l0.9,1.3l-0.5-1.5L76.5,333.8z"/>
<path class="st1" d="M362.5,52.2l-0.9-1.3l0.5,1.5L362.5,52.2z"/>
<path class="st0" d="M155.7,333.7l3.6-6.6c9.6-1.6,18.7-6.3,25.5-14c6.7-7.6,12-16.2,16.6-25.1l0,0l3.9-7.1
	c9.7-1.5,18.9-6.3,25.8-14c6.7-7.6,12-16.2,16.6-25.1l0,0l3.9-7.1c9.7-1.5,18.9-6.3,25.8-14c6.7-7.6,12-16.2,16.6-25.1l0,0l3.9-7.1
	c9.7-1.5,18.9-6.3,25.8-14c6.7-7.6,12-16.2,16.6-25.1l0,0l3.9-7.1c9.7-1.5,18.9-6.3,25.8-14c6.7-7.6,12-16.2,16.6-25.1l0,0l3.8-6.9
	c8.9-1.3,17.3-5.4,24-12.1c4.6-4.6,8.8-9.7,12.5-15.2v0l0-0.1c2-3,3.9-6.1,5.6-9.2l0.8-1.4l-47.3-2.7c0,0-0.1,0.1-0.1,0.1
	c-6.6,6.7-13.6,12.2-20,16l-4.8,5.9h0c-6,7.4-12.4,15-19.4,22.3c-7.2,7.5-14.9,13.7-21.9,17.9l-4.9,6h0c-6,7.4-12.4,15-19.4,22.3
	c-7.2,7.5-14.9,13.7-21.9,17.9l-4.9,6h0c-6,7.4-12.4,15-19.4,22.3c-7.2,7.5-14.9,13.7-21.9,17.9l-4.9,6h0c-6,7.4-12.4,15-19.4,22.3
	c-7.2,7.5-14.9,13.7-21.9,17.9l-4.9,6h0c-6,7.4-12.4,15-19.4,22.3c-7.1,7.4-14.7,13.6-21.7,17.8l-4.6,5.6h0
	c-11.7,14.6-25.1,29.5-41.6,42.6l20.9,29.2C132.7,370.6,146,352.8,155.7,333.7L155.7,333.7z"/>
<path class="st0" d="M130.2,308.2L130.2,308.2l4.6-5.6c7-4.2,14.6-10.4,21.7-17.8c7-7.3,13.4-14.8,19.4-22.3h0l4.9-6
	c7-4.2,14.7-10.5,21.9-17.9c7-7.3,13.4-14.8,19.4-22.3h0l4.9-6c7-4.2,14.7-10.5,21.9-17.9c7-7.3,13.4-14.8,19.4-22.3h0l4.9-6
	c7-4.2,14.7-10.5,21.9-17.9c7-7.3,13.4-14.8,19.4-22.3h0l4.9-6c7-4.2,14.7-10.5,21.9-17.9c7-7.3,13.4-14.8,19.4-22.3h0l4.8-5.9
	c6.4-3.8,13.4-9.4,20-16c0,0,0.1-0.1,0.1-0.1l-21.6-1.2l-1.6-2.2l-0.4,0.2l-0.5-1.5l-11.2-15.7c-16.4,13.1-29.8,28-41.6,42.6h0
	l-4.9,5.9c-6.5,3.9-13.7,9.6-20.4,16.4c-4.5,4.5-8.8,9.1-13,13.9l0,0.1c-2.3,2.7-4.6,5.3-6.8,8l-1,1.2l-6.3,7.5c0,0,0.1-0.1,0.1-0.1
	c-6.2,3.9-12.8,9.3-19.2,15.6c-4.5,4.5-8.8,9.1-13,13.9l-0.1,0.1c-2.3,2.7-4.6,5.3-6.8,8l-1,1.2l-6.3,7.5c0.1,0,0.1-0.1,0.1-0.1
	c-6.2,3.9-12.8,9.3-19.2,15.6c-4.5,4.5-8.8,9.1-13,13.9l-0.1,0.1c-2.3,2.7-4.6,5.3-6.8,8l-1,1.2l-6.3,7.5c0,0,0.1-0.1,0.1-0.1
	c-6.2,3.9-12.8,9.3-19.2,15.6c-4.5,4.5-8.8,9.1-13,13.9l0,0.1c-2.3,2.7-4.6,5.3-6.8,8l-1,1.2l-6.3,7.5c0.1,0,0.1-0.1,0.1-0.1
	c-6.2,3.9-12.8,9.3-19.2,15.6c-4.5,4.5-8.8,9.1-13,13.9h0l0,0.1c-2.3,2.7-4.6,5.3-6.8,8l-1,1.2l-6,7.1c-6,3.8-12.4,8.9-18.5,15.1
	c0,0-0.1,0.1-0.1,0.1l21.6,1.2l1.6,2.2l0.4-0.2l0.5,1.5l11.2,15.7C105,337.7,118.5,322.8,130.2,308.2z"/>
<g>
	<path class="st2" d="M152.3,333.7c-7.5,0-15.1-1.7-22.2-5.2l-59.2-29.3c-7.2-3.3-15.3-4.3-23.2-2.7c-2.3,0.5-4.7-0.5-6.1-2.4
		c-1.4-1.9-1.5-4.5-0.2-6.5l5.8-9.8c1.8-3.3,3.7-6.5,5.9-9.6c0-0.1,0.1-0.1,0.1-0.2c3.8-5.6,8.1-10.8,12.8-15.6
		c15.1-15.3,38.2-19.2,57.6-9.6l58.8,29.1c6.8,3.2,14.5,4.3,22,3.1c2.3-0.4,4.5,0.6,5.8,2.5c1.3,1.9,1.4,4.3,0.3,6.3l-3.6,6.5
		c-0.1,0.1-0.1,0.3-0.2,0.4c-5.4,10.6-11.1,19.2-17.4,26.4C179.8,327.9,166.1,333.7,152.3,333.7z M57.5,283.8
		c6.3,0.3,12.6,1.8,18.5,4.5l59.4,29.4c15.3,7.6,33.8,4,44.9-8.6c5.3-5.9,10.1-13.1,14.7-21.8c-6.2-0.4-12.2-2-17.9-4.7l-58.9-29.2
		c-14.7-7.3-32.2-4.4-43.7,7.3c-4.2,4.3-8,8.9-11.4,13.9c-2,2.9-3.8,5.8-5.3,8.8L57.5,283.8z"/>
	<path class="st2" d="M109.5,386c-1.9,0-3.7-0.9-4.9-2.5l-32.9-46.1l-66-3.7c-2.1-0.1-3.9-1.3-4.9-3.1c-1-1.8-1-4,0-5.8l0.8-1.4
		c1.8-3.3,3.7-6.5,5.9-9.7c0-0.1,0.1-0.1,0.1-0.2c3.9-5.7,8.4-11.1,13.3-16c14.9-15,37.9-18.6,57.1-9.1l58.8,29.1
		c6.8,3.2,14.5,4.3,22,3.1c2.3-0.4,4.5,0.6,5.8,2.5c1.3,1.9,1.4,4.3,0.3,6.3l-3.6,6.5c-0.1,0.1-0.1,0.3-0.2,0.4
		c-8,15.8-21.9,38-49.3,49.1C111,385.8,110.2,386,109.5,386z M16.1,322.3l59.1,3.3c1.8,0.1,3.5,1,4.5,2.5l31.7,44.4
		c15.6-7.4,27.4-19.8,37.8-39.4c-6.2-0.4-12.2-2-17.9-4.7l-58.9-29.2c-14.6-7.2-32-4.5-43.3,6.8c-4.4,4.4-8.3,9.2-11.8,14.3
		C17,321,16.5,321.6,16.1,322.3z"/>
	<path class="st2" d="M383.5,102.8c-7.6,0-15.2-1.7-22.3-5.2l-58.8-29.1c-6.8-3.2-14.5-4.3-22-3.1c-2.3,0.4-4.5-0.6-5.8-2.5
		c-1.3-1.9-1.4-4.3-0.3-6.3l3.6-6.5c0.1-0.1,0.1-0.3,0.2-0.4c8-15.8,21.9-38,49.3-49.1c2.6-1,5.5-0.2,7.1,2.1l32.9,46.1l66,3.7
		c2,0.1,3.9,1.3,4.9,3.1c1,1.8,1,4,0,5.8l-0.8,1.4c-1.8,3.3-3.7,6.5-5.9,9.6c0,0.1-0.1,0.1-0.1,0.2c-3.9,5.7-8.4,11.1-13.3,16
		C408.9,97.8,396.3,102.8,383.5,102.8z M289.7,52.9c6.2,0.4,12.2,2,17.9,4.7l58.9,29.2c14.6,7.2,32,4.5,43.3-6.8
		c4.4-4.4,8.3-9.2,11.8-14.3c0.4-0.6,0.9-1.3,1.3-1.9l-59.1-3.3c-1.8-0.1-3.5-1-4.5-2.5l-31.7-44.4
		C311.9,20.9,300.1,33.3,289.7,52.9z"/>
	<path class="st2" d="M198.5,287.5c-7.5,0-15.1-1.7-22.2-5.2L117.1,253c-7.2-3.3-15.2-4.3-23.2-2.7c-2.3,0.5-4.7-0.5-6.1-2.4
		c-1.4-1.9-1.5-4.5-0.2-6.5l5.8-9.8c1.8-3.3,3.8-6.6,5.9-9.7c0,0,0-0.1,0.1-0.1c3.8-5.6,8.1-10.8,12.8-15.6
		c15.1-15.3,38.2-19.2,57.6-9.6l58.8,29.1c6.8,3.2,14.5,4.3,22,3.1c2.3-0.4,4.5,0.6,5.8,2.5c1.3,1.9,1.4,4.3,0.3,6.3l-3.6,6.5
		c-0.1,0.1-0.1,0.3-0.2,0.4c-5.4,10.6-11.1,19.2-17.4,26.3v0C226,281.7,212.4,287.5,198.5,287.5z M103.8,237.6
		c6.3,0.3,12.6,1.8,18.5,4.5l59.4,29.4c15.3,7.6,33.8,4,44.9-8.6c5.2-5.9,10.1-13.1,14.7-21.8c-6.2-0.4-12.2-2-17.9-4.7l-58.9-29.2
		c-14.7-7.3-32.2-4.4-43.7,7.3c-4.2,4.3-8,8.9-11.4,13.9c0,0,0,0,0,0.1c0,0,0,0,0,0c-1.9,2.8-3.7,5.8-5.3,8.7L103.8,237.6z"/>
	<path class="st2" d="M244.7,241.3c-7.5,0-15.1-1.7-22.2-5.2l-59.2-29.3c-7.2-3.3-15.3-4.3-23.2-2.7c-2.3,0.5-4.7-0.5-6.1-2.4
		c-1.4-1.9-1.5-4.5-0.2-6.5l5.8-9.8c1.8-3.3,3.7-6.5,5.9-9.6c0-0.1,0.1-0.1,0.1-0.2c3.8-5.6,8.1-10.8,12.8-15.6
		c15.1-15.3,38.2-19.2,57.6-9.6l58.8,29.1c6.8,3.2,14.5,4.3,22,3.1c2.3-0.4,4.5,0.6,5.8,2.5s1.4,4.3,0.3,6.3l-3.6,6.5
		c-0.1,0.1-0.1,0.3-0.2,0.4c-5.4,10.6-11.1,19.2-17.4,26.4C272.2,235.5,258.6,241.3,244.7,241.3z M150,191.4
		c6.3,0.3,12.6,1.8,18.5,4.5l59.4,29.4c15.3,7.6,33.8,4,44.9-8.6c5.3-5.9,10.1-13.1,14.7-21.8c-6.2-0.4-12.2-2-17.9-4.7L210.6,161
		c-14.7-7.3-32.2-4.4-43.7,7.3c-4.2,4.3-8,8.9-11.4,13.9c-2,2.9-3.8,5.8-5.3,8.8L150,191.4z"/>
	<path class="st2" d="M290.9,195.1c-7.5,0-15.1-1.7-22.2-5.2l-59.2-29.3c-7.2-3.3-15.3-4.3-23.2-2.7c-2.3,0.5-4.7-0.5-6.1-2.4
		s-1.5-4.5-0.2-6.5l5.8-9.8c1.8-3.3,3.8-6.6,5.9-9.7c0,0,0-0.1,0.1-0.1c3.8-5.6,8.1-10.8,12.8-15.6c15.1-15.3,38.2-19.2,57.6-9.6
		l58.8,29.1c6.8,3.2,14.5,4.3,22,3.1c2.3-0.4,4.5,0.6,5.8,2.5c1.3,1.9,1.4,4.3,0.3,6.3l-3.6,6.5c-0.1,0.1-0.1,0.3-0.2,0.4
		c-5.4,10.6-11.1,19.2-17.4,26.4C318.4,189.3,304.8,195.1,290.9,195.1z M196.2,145.2c6.3,0.3,12.6,1.8,18.5,4.5l59.3,29.4
		c15.3,7.6,33.8,4,45-8.6v0c5.2-5.9,10.1-13.1,14.6-21.8c-6.2-0.4-12.2-2-17.9-4.7l-58.9-29.2c-14.7-7.3-32.2-4.4-43.7,7.3
		c-4.2,4.3-8,8.9-11.4,13.9c0,0,0,0,0,0.1c0,0,0,0,0,0c-1.9,2.8-3.7,5.8-5.3,8.7L196.2,145.2z"/>
	<path class="st2" d="M337.1,148.9c-7.5,0-15.1-1.7-22.2-5.2l-59.2-29.3c-7.2-3.3-15.3-4.3-23.2-2.7c-2.3,0.5-4.7-0.5-6.1-2.4
		s-1.5-4.5-0.2-6.5l5.8-9.8c1.8-3.3,3.7-6.5,5.9-9.6c0-0.1,0.1-0.1,0.1-0.2c3.8-5.6,8.1-10.8,12.8-15.6
		c15.1-15.3,38.2-19.2,57.6-9.6L367.2,87c6.8,3.2,14.5,4.3,22,3.1c2.3-0.4,4.5,0.6,5.8,2.5s1.4,4.3,0.3,6.3l-3.6,6.5
		c-0.1,0.1-0.1,0.3-0.2,0.4c-5.4,10.6-11.1,19.2-17.4,26.4C364.6,143.1,351,148.9,337.1,148.9z M242.4,99c6.3,0.3,12.6,1.8,18.5,4.5
		l59.4,29.4c15.3,7.6,33.8,4,45-8.6c5.2-5.9,10.1-13.1,14.7-21.8c-6.2-0.4-12.2-2-17.9-4.7l-58.9-29.2c-14.7-7.3-32.2-4.4-43.7,7.3
		c-4.2,4.3-8,8.9-11.4,13.9c-2,2.9-3.8,5.8-5.3,8.8L242.4,99z"/>
</g>
</svg>
